<?xml version="1.0" encoding="UTF-8"?>
<svg xmlns="http://www.w3.org/2000/svg" width="269" height="33" viewBox="0 0 269 33" fill="none">
  <path d="M247.93 31.7382V9.61388H254.031V12.6867C255.261 10.5357 257.719 9.2627 260.792 9.2627C265.752 9.2627 269.001 12.8623 269.001 17.9544V31.7382H262.855V19.3152C262.855 16.6375 261.143 14.706 258.597 14.706C255.919 14.706 254.031 16.7692 254.031 19.6225V31.7382H247.93Z" fill="white"></path>
  <path d="M234.073 32.0894C226.522 32.0894 222.703 26.2072 222.703 20.6322C222.703 15.0572 226.127 9.2627 233.634 9.2627C241.447 9.2627 244.52 15.0572 244.52 20.0615C244.52 20.8955 244.476 21.554 244.432 22.0369H228.541C229.024 25.1536 230.956 27.0851 234.073 27.0851C236.531 27.0851 238.155 26.1194 238.638 24.2318H244.608C243.73 29.0166 239.516 32.0894 234.073 32.0894ZM228.673 18.13H238.462C238.243 15.6717 236.575 13.7402 233.634 13.7402C231 13.7402 229.288 15.2767 228.673 18.13Z" fill="white"></path>
  <path d="M206.884 32.0891C200.782 32.0891 196.875 27.5238 196.875 20.6758C196.875 13.8716 200.782 9.26238 207.015 9.26238C209.605 9.26238 211.976 10.272 213.38 11.9401V0H219.482V31.7379H213.38V29.3236C212.064 31.0356 209.605 32.0891 206.884 32.0891ZM208.288 26.8214C211.537 26.8214 213.688 24.3631 213.688 20.6758C213.688 16.9445 211.537 14.4862 208.288 14.4862C205.084 14.4862 202.889 16.9445 202.889 20.6758C202.889 24.3631 205.084 26.8214 208.288 26.8214Z" fill="white"></path>
  <path d="M182.164 31.7376V9.61328H188.266V13.3007C189.451 10.5351 191.119 9.61328 193.841 9.61328H196.299V14.7054H192.656C189.627 14.7054 188.266 17.2076 188.266 20.9827V31.7376H182.164Z" fill="white"></path>
  <path d="M165.146 32.0894C159.001 32.0894 155.094 27.5241 155.094 20.6761C155.094 13.8719 159.001 9.2627 165.234 9.2627C167.78 9.2627 170.151 10.2284 171.599 11.8088V9.61388H177.701V31.7382H171.599V29.4117C170.282 31.0798 167.868 32.0894 165.146 32.0894ZM166.507 26.8217C169.756 26.8217 171.907 24.3635 171.907 20.6761C171.907 16.9448 169.756 14.4865 166.507 14.4865C163.303 14.4865 161.108 16.9448 161.108 20.6761C161.108 24.3635 163.303 26.8217 166.507 26.8217Z" fill="white"></path>
  <path d="M137.363 32.0889C129.945 32.0889 123.141 26.7333 123.141 16.3735C123.141 6.0137 130.076 0.658203 138.68 0.658203C146.538 0.658203 152.025 5.09185 152.552 11.7204H145.572C145.089 8.42807 142.499 6.32098 138.549 6.32098C133.325 6.32098 129.769 10.0962 129.769 16.3296C129.769 23.0021 133.676 26.3822 138.724 26.3822C143.114 26.3822 146.143 23.7922 146.143 21.2462C146.143 20.3682 145.748 19.8853 144.826 19.8853H138.988V14.9249H147.46C150.401 14.9249 152.289 16.8125 152.289 19.7975V31.7377H146.45V28.0503C145.353 29.9379 142.017 32.0889 137.363 32.0889Z" fill="white"></path>
  <path d="M119.336 31.7379C115.43 31.7379 112.664 29.2797 112.664 24.9777V0H118.81V24.1437C118.81 25.6801 119.644 26.6019 121.136 26.6019H122.541V31.7379H119.336Z" fill="#20E28F"></path>
  <path d="M95.865 32.0894C89.7194 32.0894 85.8125 27.5241 85.8125 20.6761C85.8125 13.8719 89.7194 9.2627 95.9528 9.2627C98.4989 9.2627 100.869 10.2284 102.318 11.8088V9.61388H108.42V31.7382H102.318V29.4117C101.001 31.0798 98.5867 32.0894 95.865 32.0894ZM97.2259 26.8217C100.474 26.8217 102.625 24.3635 102.625 20.6761C102.625 16.9448 100.474 14.4865 97.2259 14.4865C94.0213 14.4865 91.8265 16.9448 91.8265 20.6761C91.8265 24.3635 94.0213 26.8217 97.2259 26.8217Z" fill="#20E28F"></path>
  <path d="M76.3787 31.7379V9.61357H82.4805V31.7379H76.3787ZM76.2031 0H82.7V6.45294H76.2031V0Z" fill="#20E28F"></path>
  <path d="M62.3587 32.0894C55.4668 32.0894 50.9453 27.129 50.9453 20.6761C50.9453 14.2231 55.4668 9.2627 62.3587 9.2627C68.1532 9.2627 72.7624 12.7745 73.1575 17.9105H67.0118C66.6606 15.9351 64.773 14.4865 62.5343 14.4865C59.1981 14.4865 57.3105 17.0765 57.3105 20.6761C57.3105 24.2757 59.242 26.8217 62.6221 26.8217C64.8608 26.8217 66.6167 25.4609 67.0996 23.4855H73.2892C72.6746 28.402 68.0654 32.0894 62.3587 32.0894Z" fill="#20E28F"></path>
  <path d="M37.208 32.0894C30.4039 32.0894 25.5312 27.2607 25.5312 20.6761C25.5312 14.0914 30.4039 9.2627 37.208 9.2627C44.0121 9.2627 48.8848 14.0914 48.8848 20.6761C48.8848 27.2607 44.0121 32.0894 37.208 32.0894ZM37.208 26.8217C40.5003 26.8217 42.7391 24.3196 42.7391 20.6761C42.7391 16.9887 40.5003 14.4865 37.208 14.4865C33.9157 14.4865 31.6769 16.9887 31.6769 20.6761C31.6769 24.3196 33.9157 26.8217 37.208 26.8217Z" fill="#20E28F"></path>
  <path d="M11.9401 32.0889C4.78483 32.0889 0.263385 27.8308 0 21.2901H6.32125C6.58463 24.4068 8.56002 26.3822 11.9401 26.3822C14.8813 26.3822 16.8128 25.153 16.8128 22.8265C16.8128 16.7247 0.790156 21.5534 0.790156 9.48161C0.790156 4.2578 5.26771 0.658203 11.5451 0.658203C18.1736 0.658203 22.6072 4.47729 22.7828 10.3157H16.5494C16.286 7.9013 14.4423 6.32098 11.5451 6.32098C8.9112 6.32098 7.28699 7.55012 7.28699 9.48161C7.28699 15.8468 23.4413 10.4474 23.4413 22.7387C23.4413 28.4893 18.8321 32.0889 11.9401 32.0889Z" fill="#20E28F"></path>
</svg>
